<svg width="158" height="211" viewBox="0 0 158 211" fill="none" xmlns="http://www.w3.org/2000/svg">
<g clip-path="url(#clip0_10_2)">
<g filter="url(#filter0_d_10_2)">
<path d="M95.336 81.768H67.456L60.52 119.304H88.4L95.336 81.768ZM153.816 57.56L151.368 71.568C150.643 75.0133 149.192 77.5973 147.016 79.32C144.84 80.952 141.349 81.768 136.544 81.768H122.944L116.008 119.304H135.184C138.629 119.304 141.077 120.347 142.528 122.432C144.069 124.427 144.477 127.917 143.752 132.904L141.984 143.512H112.472L102.136 199H86.632C85.0907 199 83.64 198.637 82.28 197.912C80.92 197.187 79.7867 196.189 78.88 194.92C77.9733 193.651 77.2933 192.2 76.84 190.568C76.4773 188.845 76.5227 187.032 76.976 185.128L84.864 143.512H57.12L49.096 186.76C48.3707 191.112 46.5573 194.24 43.656 196.144C40.7547 198.048 37.536 199 34 199H19.04L29.376 143.512H13.736C10.2907 143.512 7.84267 142.515 6.392 140.52C4.94133 138.435 4.57867 134.944 5.304 130.048L7.072 119.304H32.912L39.848 81.768H10.744L13.328 67.76C14.0533 64.3147 15.504 61.776 17.68 60.144C19.856 58.4213 23.3467 57.56 28.152 57.56H43.384L51.68 13.768C52.4053 10.1413 54.0827 7.33066 56.712 5.336C59.3413 3.34132 62.424 2.34399 65.96 2.34399H81.328L70.856 57.56H98.736L109.208 2.34399H124.168C127.613 2.34399 130.379 3.47732 132.464 5.74398C134.549 7.91999 135.32 10.6853 134.776 14.04L126.48 57.56H153.816Z" fill="#DC3ACC"/>
</g>
</g>
<defs>
<filter id="filter0_d_10_2" x="4.216" y="2.34399" width="157.6" height="204.656" filterUnits="userSpaceOnUse" color-interpolation-filters="sRGB">
<feFlood flood-opacity="0" result="BackgroundImageFix"/>
<feColorMatrix in="SourceAlpha" type="matrix" values="0 0 0 0 0 0 0 0 0 0 0 0 0 0 0 0 0 0 127 0" result="hardAlpha"/>
<feOffset dx="4" dy="4"/>
<feGaussianBlur stdDeviation="2"/>
<feComposite in2="hardAlpha" operator="out"/>
<feColorMatrix type="matrix" values="0 0 0 0 0 0 0 0 0 0 0 0 0 0 0 0 0 0 0.25 0"/>
<feBlend mode="normal" in2="BackgroundImageFix" result="effect1_dropShadow_10_2"/>
<feBlend mode="normal" in="SourceGraphic" in2="effect1_dropShadow_10_2" result="shape"/>
</filter>
<clipPath id="clip0_10_2">
<rect width="158" height="211" fill="white"/>
</clipPath>
</defs>
</svg>
