<svg width="320" height="320" viewBox="0 0 320 320" fill="none" xmlns="http://www.w3.org/2000/svg">
<g clip-path="url(#clip0_56_57)">
<g opacity="0.7">
<path d="M105.547 28.563C101.476 34.5592 98.24 41.5155 96.1081 49.4323C89.979 72.197 72.197 89.979 49.432 96.1088C41.5151 98.24 34.5585 101.476 28.5622 105.547C20.0636 61.0939 61.0934 20.0642 105.547 28.563Z" fill="#FFD819"/>
<path d="M28.5631 105.547C29.9241 112.666 32.5553 119.873 36.646 126.978C48.409 147.409 48.409 172.557 36.646 192.988C32.5552 200.094 29.924 207.3 28.5631 214.42C-8.87979 188.996 -8.87972 130.971 28.5631 105.547Z" fill="#FFE029"/>
<path d="M105.547 291.403C101.476 285.407 98.24 278.45 96.1081 270.534C89.979 247.769 72.197 229.987 49.432 223.858C41.5151 221.726 34.5585 218.49 28.5622 214.418C20.0636 258.872 61.0934 299.902 105.547 291.403Z" fill="#FFC141"/>
<path d="M214.42 291.403C207.301 290.042 200.095 287.411 192.989 283.32C172.557 271.557 147.41 271.557 126.979 283.32C119.873 287.411 112.666 290.042 105.547 291.403C130.971 328.846 188.996 328.846 214.42 291.403Z" fill="#FFB655"/>
<path d="M291.404 214.419C285.408 218.491 278.452 221.726 270.535 223.858C247.77 229.987 229.988 247.769 223.858 270.534C221.727 278.45 218.492 285.407 214.42 291.403C258.873 299.902 299.903 258.872 291.404 214.419Z" fill="#FFB35B"/>
<path d="M291.404 105.547C290.043 112.666 287.412 119.873 283.321 126.978C271.558 147.409 271.558 172.557 283.321 192.988C287.412 200.094 290.043 207.3 291.404 214.419C328.846 188.996 328.846 130.972 291.404 105.547Z" fill="#FFB656"/>
<path d="M214.42 28.5628C218.492 34.5591 221.727 41.5155 223.858 49.4323C229.988 72.197 247.77 89.9791 270.535 96.1089C278.452 98.2401 285.408 101.476 291.404 105.547C299.903 61.0939 258.873 20.0648 214.42 28.5628Z" fill="#FFC042"/>
<path d="M105.547 28.5632C112.666 29.9242 119.873 32.5553 126.978 36.6461C147.41 48.4091 172.558 48.4092 192.988 36.6461C200.094 32.5555 207.3 29.9244 214.419 28.5634C188.995 -8.87884 130.971 -8.87884 105.547 28.5632Z" fill="#FFCE2A"/>
</g>
<path fill-rule="evenodd" clip-rule="evenodd" d="M96.1103 49.4319C98.2415 41.5152 101.477 34.5589 105.549 28.5626C112.667 29.9236 119.874 32.5548 126.979 36.6454C147.411 48.4085 172.558 48.4085 192.989 36.6454C200.095 32.5547 207.302 29.9234 214.421 28.5625C218.492 34.5587 221.728 41.5152 223.859 49.4319C229.989 72.197 247.771 89.979 270.536 96.1081C278.452 98.24 285.409 101.475 291.405 105.547C290.044 112.666 287.413 119.873 283.322 126.977C271.558 147.409 271.558 172.557 283.322 192.988C287.413 200.093 290.044 207.3 291.405 214.419C285.409 218.491 278.452 221.726 270.536 223.858C247.771 229.987 229.989 247.769 223.859 270.534C221.728 278.45 218.492 285.407 214.421 291.403C207.302 290.042 200.095 287.411 192.989 283.32C172.558 271.558 147.411 271.558 126.979 283.32C119.874 287.411 112.667 290.042 105.549 291.403C101.477 285.407 98.2415 278.45 96.1103 270.534C89.9805 247.769 72.1985 229.987 49.4337 223.858C41.5169 221.726 34.5603 218.49 28.564 214.418C29.925 207.3 32.5561 200.093 36.6467 192.988C48.4098 172.557 48.4098 147.409 36.6467 126.977C32.5561 119.873 29.925 112.666 28.564 105.547C34.5602 101.476 41.5168 98.24 49.4337 96.1081C72.1985 89.979 89.9805 72.197 96.1103 49.4319Z" fill="url(#paint0_radial_56_57)"/>
<path d="M231.187 194.273L225.622 184.635C224.086 181.973 220.682 181.062 218.021 182.598L218.021 182.598C215.359 184.135 214.447 187.538 215.984 190.2L221.549 199.838C223.085 202.499 226.488 203.411 229.15 201.874L229.15 201.874C231.811 200.338 232.723 196.935 231.187 194.273Z" fill="#FFA17A"/>
<path d="M217.277 194.273L211.712 184.635C210.175 181.973 206.772 181.062 204.111 182.598L204.111 182.598C201.449 184.135 200.537 187.538 202.074 190.2L207.638 199.838C209.175 202.499 212.578 203.411 215.24 201.874L215.24 201.874C217.901 200.338 218.813 196.935 217.277 194.273Z" fill="#FFA17A"/>
<path d="M118.506 194.273L112.941 184.635C111.404 181.973 108.001 181.062 105.34 182.598L105.34 182.598C102.678 184.135 101.766 187.538 103.303 190.2L108.867 199.838C110.404 202.499 113.807 203.411 116.469 201.874L116.469 201.874C119.13 200.338 120.042 196.935 118.506 194.273Z" fill="#FFAB89"/>
<path d="M104.594 194.273L99.0298 184.635C97.4932 181.973 94.09 181.062 91.4285 182.598L91.4285 182.598C88.767 184.135 87.8551 187.538 89.3917 190.2L94.9563 199.838C96.4929 202.499 99.8961 203.411 102.558 201.874L102.558 201.874C105.219 200.338 106.131 196.935 104.594 194.273Z" fill="#FFAB89"/>
<path d="M226.645 121.535L215.895 118.655C212.927 117.859 209.876 119.621 209.08 122.59L209.08 122.59C208.285 125.558 210.047 128.609 213.015 129.405L223.765 132.285C226.733 133.081 229.785 131.319 230.58 128.35C231.375 125.382 229.614 122.331 226.645 121.535Z" fill="#FFA17A"/>
<path d="M104.126 118.654L93.3764 121.535C90.4079 122.33 88.6463 125.382 89.4417 128.35L89.4417 128.35C90.2371 131.319 93.2883 133.08 96.2568 132.285L107.007 129.404C109.975 128.609 111.737 125.558 110.941 122.589C110.146 119.621 107.095 117.859 104.126 118.654Z" fill="#FFAB89"/>
<path d="M147.82 179.816C150.755 183.067 155.96 185.38 160.341 185.38C164.721 185.38 169.926 183.067 172.861 179.816" stroke="#8B2C0C" stroke-opacity="0.05" stroke-width="12" stroke-linecap="round"/>
<path d="M147.82 178.425C150.755 181.676 155.96 183.989 160.341 183.989C164.721 183.989 169.926 181.676 172.861 178.425" stroke="#D05B34" stroke-width="12" stroke-linecap="round"/>
<path d="M100.72 148.495L92.8503 140.625C90.6772 138.452 87.1539 138.452 84.9808 140.625L84.9808 140.625C82.8077 142.798 82.8077 146.322 84.9808 148.495L92.8503 156.364C95.0233 158.537 98.5466 158.537 100.72 156.364C102.893 154.191 102.893 150.668 100.72 148.495Z" fill="black"/>
<path d="M125.562 160.34C125.562 148.815 116.219 139.473 104.695 139.473C93.1701 139.473 83.8276 148.815 83.8276 160.34C83.8276 171.865 93.1701 181.207 104.695 181.207C116.219 181.207 125.562 171.865 125.562 160.34Z" fill="black"/>
<path d="M125.562 161.73C125.562 150.206 116.219 140.863 104.695 140.863C93.1701 140.863 83.8276 150.206 83.8276 161.73C83.8276 173.255 93.1701 182.597 104.695 182.597C116.219 182.597 125.562 173.255 125.562 161.73Z" fill="black" fill-opacity="0.05"/>
<path fill-rule="evenodd" clip-rule="evenodd" d="M88.9502 165.903C91.2421 159.42 97.4252 154.775 104.693 154.775C111.962 154.775 118.146 159.42 120.437 165.905C118.146 172.387 111.962 177.032 104.694 177.032C97.4252 177.032 91.2414 172.387 88.9502 165.903Z" fill="#784012"/>
<path fill-rule="evenodd" clip-rule="evenodd" d="M118.636 169.528C120.376 166.893 121.39 163.735 121.39 160.34C121.39 151.12 113.915 143.646 104.696 143.646C95.4762 143.646 88.0024 151.12 88.0024 160.34C88.0024 163.383 88.8167 166.237 90.2396 168.694C93.227 164.172 98.3548 161.188 104.18 161.188C110.356 161.188 115.749 164.542 118.636 169.528Z" fill="black" fill-opacity="0.35"/>
<path d="M114.432 160.34C114.432 154.962 110.073 150.602 104.694 150.602C99.3164 150.602 94.9565 154.962 94.9565 160.34C94.9565 165.718 99.3164 170.078 104.694 170.078C110.073 170.078 114.432 165.718 114.432 160.34Z" fill="black"/>
<path d="M100.135 158.824C104.745 158.824 108.482 155.087 108.482 150.477C108.482 145.868 104.745 142.131 100.135 142.131C95.5251 142.131 91.7881 145.868 91.7881 150.477C91.7881 155.087 95.5251 158.824 100.135 158.824Z" fill="white"/>
<path d="M115.803 166.051C118.108 166.051 119.977 164.182 119.977 161.877C119.977 159.572 118.108 157.704 115.803 157.704C113.498 157.704 111.63 159.572 111.63 161.877C111.63 164.182 113.498 166.051 115.803 166.051Z" fill="white"/>
<path d="M110.596 173.344C112.132 173.344 113.378 172.099 113.378 170.562C113.378 169.025 112.132 167.78 110.596 167.78C109.059 167.78 107.813 169.025 107.813 170.562C107.813 172.099 109.059 173.344 110.596 173.344Z" fill="white"/>
<path d="M227.969 156.365L235.839 148.495C238.012 146.322 238.012 142.799 235.839 140.626L235.839 140.626C233.666 138.452 230.142 138.452 227.969 140.626L220.1 148.495C217.927 150.668 217.927 154.191 220.1 156.364C222.273 158.538 225.796 158.538 227.969 156.365Z" fill="black"/>
<path d="M236.852 161.731C236.852 150.206 227.51 140.864 215.985 140.864C204.461 140.864 195.118 150.206 195.118 161.731C195.118 173.255 204.461 182.598 215.985 182.598C227.51 182.598 236.852 173.255 236.852 161.731Z" fill="black" fill-opacity="0.05"/>
<path d="M236.852 160.34C236.852 148.815 227.51 139.473 215.985 139.473C204.461 139.473 195.118 148.815 195.118 160.34C195.118 171.865 204.461 181.207 215.985 181.207C227.51 181.207 236.852 171.865 236.852 160.34Z" fill="black"/>
<path fill-rule="evenodd" clip-rule="evenodd" d="M200.27 165.98C202.428 159.26 208.729 154.396 216.166 154.396C223.407 154.396 229.57 159.006 231.883 165.45C229.725 172.17 223.423 177.034 215.987 177.034C208.746 177.034 202.582 172.424 200.27 165.98Z" fill="#784012"/>
<path fill-rule="evenodd" clip-rule="evenodd" d="M230.302 168.929C231.811 166.42 232.678 163.482 232.678 160.341C232.678 151.121 225.204 143.646 215.984 143.646C206.765 143.646 199.291 151.121 199.291 160.341C199.291 163.604 200.228 166.648 201.846 169.22C204.765 164.364 210.085 161.116 216.164 161.116C222.12 161.116 227.348 164.235 230.302 168.929Z" fill="black" fill-opacity="0.35"/>
<path d="M225.723 160.34C225.723 154.962 221.363 150.603 215.985 150.603C210.607 150.603 206.247 154.962 206.247 160.34C206.247 165.719 210.607 170.078 215.985 170.078C221.363 170.078 225.723 165.719 225.723 160.34Z" fill="black"/>
<path d="M211.426 158.824C216.036 158.824 219.773 155.087 219.773 150.477C219.773 145.868 216.036 142.131 211.426 142.131C206.816 142.131 203.079 145.868 203.079 150.477C203.079 155.087 206.816 158.824 211.426 158.824Z" fill="white"/>
<path d="M227.094 166.051C229.399 166.051 231.268 164.182 231.268 161.877C231.268 159.572 229.399 157.704 227.094 157.704C224.789 157.704 222.921 159.572 222.921 161.877C222.921 164.182 224.789 166.051 227.094 166.051Z" fill="white"/>
<path d="M221.887 173.344C223.423 173.344 224.669 172.099 224.669 170.562C224.669 169.025 223.423 167.78 221.887 167.78C220.35 167.78 219.104 169.025 219.104 170.562C219.104 172.099 220.35 173.344 221.887 173.344Z" fill="white"/>
</g>
<defs>
<radialGradient id="paint0_radial_56_57" cx="0" cy="0" r="1" gradientUnits="userSpaceOnUse" gradientTransform="translate(28.4471 28.4464) rotate(45) scale(371.831)">
<stop stop-color="#FFE600"/>
<stop offset="1" stop-color="#FFA573"/>
</radialGradient>
<clipPath id="clip0_56_57">
<rect width="320" height="320" fill="white"/>
</clipPath>
</defs>
</svg>
